<svg xmlns="http://www.w3.org/2000/svg" width="24" height="24" viewBox="0 0 24 24"><path fill="currentColor" d="M12 1L3 5v6c0 5.55 3.84 10.74 9 12c5.16-1.26 9-6.45 9-12V5l-9-4zm0 2.18l7 3.12v4.7c0 4.67-3.13 8.96-7 10.19c-3.87-1.23-7-5.52-7-10.19V6.3l7-3.12zm-2 4.3L8.75 9L6 11.75l1.25 1.25L10 10.25l1.25 1.25l-2.75 2.75l1.25 1.25L12.5 13l1.25 1.25L11 16.75l1.25 1.25l2.75-2.75l1.25 1.25l-2.75 2.75l1.25 1.25L17.5 18l1.25 1.25L16 21.75L12 17.75L8 21.75L6.75 20.5L9.5 17.75L8.25 16.5l2.75-2.75L9.75 12.5L7 15.25L5.75 14L8.5 11.25L7.25 10L10 7.25L8.75 6L11.5 3.25l1.25 1.25L10 7.25z"/></svg>
